<mxfile host="app.diagrams.net" modified="2023-10-12T16:42:23.542Z" agent="Mozilla/5.0 (Windows NT 10.0; Win64; x64) AppleWebKit/537.36 (KHTML, like Gecko) Chrome/117.0.0.0 Safari/537.36 Edg/117.0.2045.60" etag="BVDajTjYmjSbwQa4vgjJ" version="22.0.4" type="github">
  <diagram name="第 1 页" id="e0JCgF9dskVaVWp_Zcot">
    <mxGraphModel dx="1754" dy="831" grid="1" gridSize="10" guides="1" tooltips="1" connect="1" arrows="1" fold="1" page="1" pageScale="1" pageWidth="827" pageHeight="1169" math="0" shadow="0">
      <root>
        <mxCell id="0" />
        <mxCell id="1" parent="0" />
        <mxCell id="MiEdg8lr3Fu18mYUraoI-2" value="用户" style="shape=umlActor;verticalLabelPosition=bottom;verticalAlign=top;html=1;outlineConnect=0;" vertex="1" parent="1">
          <mxGeometry x="40" y="350" width="30" height="50" as="geometry" />
        </mxCell>
        <mxCell id="MiEdg8lr3Fu18mYUraoI-3" value="团队新开发的应用程序" style="rounded=0;whiteSpace=wrap;html=1;" vertex="1" parent="1">
          <mxGeometry x="230" y="310" width="60" height="120" as="geometry" />
        </mxCell>
        <mxCell id="MiEdg8lr3Fu18mYUraoI-5" value="" style="endArrow=classic;html=1;rounded=0;" edge="1" parent="1" target="MiEdg8lr3Fu18mYUraoI-3">
          <mxGeometry width="50" height="50" relative="1" as="geometry">
            <mxPoint x="80" y="370" as="sourcePoint" />
            <mxPoint x="700" y="400" as="targetPoint" />
          </mxGeometry>
        </mxCell>
        <mxCell id="MiEdg8lr3Fu18mYUraoI-6" value="1、登陆请求" style="text;html=1;align=center;verticalAlign=middle;resizable=0;points=[];autosize=1;strokeColor=none;fillColor=none;" vertex="1" parent="1">
          <mxGeometry x="115" y="338" width="90" height="30" as="geometry" />
        </mxCell>
        <mxCell id="MiEdg8lr3Fu18mYUraoI-7" value="infra-gateway" style="rounded=0;whiteSpace=wrap;html=1;" vertex="1" parent="1">
          <mxGeometry x="460" y="310" width="60" height="115" as="geometry" />
        </mxCell>
        <mxCell id="MiEdg8lr3Fu18mYUraoI-8" value="" style="endArrow=classic;html=1;rounded=0;exitX=1;exitY=0.5;exitDx=0;exitDy=0;entryX=0;entryY=0.5;entryDx=0;entryDy=0;" edge="1" parent="1" source="MiEdg8lr3Fu18mYUraoI-3" target="MiEdg8lr3Fu18mYUraoI-7">
          <mxGeometry width="50" height="50" relative="1" as="geometry">
            <mxPoint x="650" y="450" as="sourcePoint" />
            <mxPoint x="700" y="400" as="targetPoint" />
          </mxGeometry>
        </mxCell>
        <mxCell id="MiEdg8lr3Fu18mYUraoI-15" value="2、infra的鉴权访问" style="edgeLabel;html=1;align=center;verticalAlign=middle;resizable=0;points=[];" vertex="1" connectable="0" parent="MiEdg8lr3Fu18mYUraoI-8">
          <mxGeometry x="-0.1569" y="2" relative="1" as="geometry">
            <mxPoint as="offset" />
          </mxGeometry>
        </mxCell>
        <mxCell id="MiEdg8lr3Fu18mYUraoI-9" value="" style="endArrow=classic;html=1;rounded=0;exitX=1;exitY=0.5;exitDx=0;exitDy=0;" edge="1" parent="1" source="MiEdg8lr3Fu18mYUraoI-7">
          <mxGeometry width="50" height="50" relative="1" as="geometry">
            <mxPoint x="650" y="450" as="sourcePoint" />
            <mxPoint x="620" y="368" as="targetPoint" />
          </mxGeometry>
        </mxCell>
        <mxCell id="MiEdg8lr3Fu18mYUraoI-10" value="infra-oauth" style="rounded=0;whiteSpace=wrap;html=1;" vertex="1" parent="1">
          <mxGeometry x="620" y="310" width="60" height="115" as="geometry" />
        </mxCell>
        <mxCell id="MiEdg8lr3Fu18mYUraoI-13" style="edgeStyle=orthogonalEdgeStyle;rounded=0;orthogonalLoop=1;jettySize=auto;html=1;exitX=0.5;exitY=0;exitDx=0;exitDy=0;entryX=0.5;entryY=0;entryDx=0;entryDy=0;entryPerimeter=0;" edge="1" parent="1" source="MiEdg8lr3Fu18mYUraoI-10" target="MiEdg8lr3Fu18mYUraoI-2">
          <mxGeometry relative="1" as="geometry">
            <Array as="points">
              <mxPoint x="640" y="250" />
              <mxPoint x="55" y="250" />
            </Array>
          </mxGeometry>
        </mxCell>
        <mxCell id="MiEdg8lr3Fu18mYUraoI-14" value="3、返回授权页面" style="edgeLabel;html=1;align=center;verticalAlign=middle;resizable=0;points=[];" vertex="1" connectable="0" parent="MiEdg8lr3Fu18mYUraoI-13">
          <mxGeometry x="-0.0448" relative="1" as="geometry">
            <mxPoint as="offset" />
          </mxGeometry>
        </mxCell>
      </root>
    </mxGraphModel>
  </diagram>
</mxfile>
